<?xml version="1.0" encoding="UTF-8" standalone="no"?>
<!-- Created with Inkscape (http://www.inkscape.org/) -->

<svg
   width="49.316669mm"
   height="49.245148mm"
   viewBox="0 0 49.316669 49.245148"
   version="1.1"
   id="svg1"
   xml:space="preserve"
   inkscape:version="1.3.2 (091e20e, 2023-11-25, custom)"
   sodipodi:docname="svg-portfolio.svg"
   xmlns:inkscape="http://www.inkscape.org/namespaces/inkscape"
   xmlns:sodipodi="http://sodipodi.sourceforge.net/DTD/sodipodi-0.dtd"
   xmlns="http://www.w3.org/2000/svg"
   xmlns:svg="http://www.w3.org/2000/svg"><sodipodi:namedview
     id="namedview1"
     pagecolor="#505050"
     bordercolor="#ffffff"
     borderopacity="1"
     inkscape:showpageshadow="0"
     inkscape:pageopacity="0"
     inkscape:pagecheckerboard="1"
     inkscape:deskcolor="#505050"
     inkscape:document-units="mm"
     inkscape:zoom="1.4485269"
     inkscape:cx="175.00538"
     inkscape:cy="560.22431"
     inkscape:window-width="1920"
     inkscape:window-height="1009"
     inkscape:window-x="1912"
     inkscape:window-y="-8"
     inkscape:window-maximized="1"
     inkscape:current-layer="layer2" /><defs
     id="defs1" /><g
     inkscape:label="Camada 1"
     inkscape:groupmode="layer"
     id="layer1"
     style="display:inline"
     transform="translate(-52.238466,-107.50501)"><g
       inkscape:groupmode="layer"
       id="layer6"
       inkscape:label="git"><g
         id="g36"
         transform="translate(2.3745389,-3.2878229)"><path
           style="fill:#00fdfd"
           d="m 61.609769,159.96063 c -5.072954,-0.72451 -9.37844,-4.3624 -11.040915,-9.32892 -0.561184,-1.6765 -0.585347,-2.18996 -0.673561,-14.31289 -0.07712,-10.59783 -0.02691,-12.8849 0.31943,-14.55208 1.057526,-5.0906 4.423771,-8.86379 9.267392,-10.38773 1.819673,-0.57252 2.171226,-0.58618 15.092237,-0.58618 12.921011,0 13.272564,0.0137 15.092236,0.58618 4.360738,1.37201 7.549482,4.56401 8.929693,8.93882 0.57022,1.80739 0.58432,2.17136 0.58432,15.08125 0,12.96319 -0.0119,13.26704 -0.59248,15.11301 -1.329085,4.22591 -4.26712,7.23077 -8.689078,8.88673 -1.532558,0.57391 -1.846118,0.58753 -14.530941,0.63087 -7.130521,0.0244 -13.321771,-0.007 -13.758333,-0.0691 z m 14.102201,-7.34451 c 1.04391,-0.55195 16.102054,-15.78397 16.320076,-16.50853 0.101683,-0.33792 0.118873,-0.87371 0.0382,-1.19063 -0.08067,-0.31691 -3.876027,-4.29692 -8.434123,-8.84444 -5.984481,-5.9706 -8.453829,-8.26823 -8.886187,-8.26823 -0.969749,0 -1.928674,0.63535 -3.593464,2.3809 l -1.565796,1.64175 1.891811,1.85841 c 1.591911,1.56381 2.089333,1.89531 3.137811,2.09119 1.695711,0.31679 2.467594,1.08397 2.467594,2.45254 0,0.97663 0.170299,1.24358 1.911608,2.99659 1.76676,1.77863 1.995531,1.92445 3.019188,1.92445 0.911973,0 1.228554,0.14377 1.792559,0.81405 0.376738,0.44773 0.684978,1.10849 0.684978,1.46835 0,1.01559 -0.689622,2.10819 -1.557547,2.4677 -1.766484,0.7317 -3.469536,-0.47756 -3.469536,-2.46356 0,-0.97196 -0.166954,-1.25013 -1.646002,-2.74244 -0.905301,-0.91342 -1.738739,-1.66076 -1.852083,-1.66076 -0.113345,0 -0.206081,2.09617 -0.206081,4.65816 0,4.58268 0.01072,4.67089 0.661458,5.44425 1.462234,1.73777 0.454823,4.18509 -1.722745,4.18509 -1.966147,0 -3.168518,-1.92023 -2.279206,-3.63997 0.225778,-0.4366 0.593502,-0.86405 0.817166,-0.94988 0.345243,-0.13248 0.40666,-0.88438 0.40666,-4.97852 v -4.82247 l -0.720836,-0.75239 c -0.554861,-0.57915 -0.725981,-1.02613 -0.743181,-1.94125 -0.02077,-1.10514 -0.151184,-1.3187 -1.851756,-3.0324 -1.006175,-1.01395 -1.952754,-1.84354 -2.103509,-1.84354 -0.150755,0 -2.681705,2.41102 -5.624333,5.35781 -5.785289,5.79349 -6.151458,6.33982 -5.229204,7.80212 0.253462,0.40188 2.262364,2.492 4.464226,4.6447 2.201862,2.1527 5.797982,5.69481 7.991379,7.87135 4.166539,4.13453 4.475561,4.32262 5.880875,3.5796 z"
           id="path39" /></g></g></g></svg>
