<?xml version="1.0" encoding="UTF-8" standalone="no"?>
<!-- Created with Inkscape (http://www.inkscape.org/) -->

<svg
   width="49.31665mm"
   height="49.245148mm"
   viewBox="0 0 49.31665 49.245148"
   version="1.1"
   id="svg1"
   xml:space="preserve"
   inkscape:version="1.3.2 (091e20e, 2023-11-25, custom)"
   sodipodi:docname="svg-portfolio.svg"
   xmlns:inkscape="http://www.inkscape.org/namespaces/inkscape"
   xmlns:sodipodi="http://sodipodi.sourceforge.net/DTD/sodipodi-0.dtd"
   xmlns="http://www.w3.org/2000/svg"
   xmlns:svg="http://www.w3.org/2000/svg"><sodipodi:namedview
     id="namedview1"
     pagecolor="#505050"
     bordercolor="#ffffff"
     borderopacity="1"
     inkscape:showpageshadow="0"
     inkscape:pageopacity="0"
     inkscape:pagecheckerboard="1"
     inkscape:deskcolor="#505050"
     inkscape:document-units="mm"
     inkscape:zoom="1.4485269"
     inkscape:cx="175.00538"
     inkscape:cy="560.22431"
     inkscape:window-width="1920"
     inkscape:window-height="1009"
     inkscape:window-x="1912"
     inkscape:window-y="-8"
     inkscape:window-maximized="1"
     inkscape:current-layer="layer2" /><defs
     id="defs1" /><g
     inkscape:label="Camada 1"
     inkscape:groupmode="layer"
     id="layer1"
     style="display:inline"
     transform="translate(-43.612817,-119.78495)"><g
       inkscape:groupmode="layer"
       id="layer2"
       inkscape:label="html"><path
         style="display:inline;fill:#00fdfd"
         d="m 137.24474,173.08579 c -5.07295,-0.72451 -9.37844,-4.36239 -11.04091,-9.32892 -0.56118,-1.6765 -0.58535,-2.18995 -0.67356,-14.31289 -0.0771,-10.59783 -0.0269,-12.8849 0.31943,-14.55208 1.05752,-5.0906 4.42377,-8.86379 9.26739,-10.38773 1.81967,-0.57251 2.17122,-0.58617 15.09223,-0.58617 12.92102,0 13.27257,0.0136 15.09224,0.58617 4.36074,1.37201 7.54948,4.56401 8.9297,8.93882 0.57021,1.80739 0.58431,2.17136 0.58431,15.08125 0,12.96319 -0.0119,13.26704 -0.59248,15.11301 -1.32908,4.22591 -4.26712,7.23078 -8.68908,8.88673 -1.53255,0.57392 -1.84611,0.58753 -14.53094,0.63087 -7.13052,0.0244 -13.32177,-0.007 -13.75833,-0.0691 z m 18.20774,-10.18206 c 2.79158,-0.74978 5.11634,-1.39576 5.16614,-1.43551 0.15179,-0.12119 2.5846,-27.11397 2.45538,-27.24319 -0.21178,-0.21178 -26.45425,-0.12905 -26.58581,0.0838 -0.0695,0.11241 0.43228,6.27389 1.11502,13.69219 l 1.24133,13.4878 5.02093,1.369 c 2.76152,0.75295 5.35629,1.37803 5.76617,1.38906 0.40989,0.011 3.02926,-0.59339 5.82084,-1.34316 z m -9.43425,-5.38694 c -1.57749,-0.4853 -2.90783,-0.92202 -2.9563,-0.9705 -0.0485,-0.0485 -0.19168,-1.18865 -0.31825,-2.53373 l -0.23013,-2.44561 h 1.66508 1.66507 v 1.03944 c 0,1.34759 0.40615,1.71642 2.34261,2.12736 1.38026,0.29291 1.83806,0.27785 3.4327,-0.11293 2.07394,-0.50825 2.16219,-0.65044 2.16219,-3.48382 v -1.42213 h -5.6835 -5.6835 l -0.15575,-0.62053 c -0.0857,-0.3413 -0.11769,-1.07703 -0.0712,-1.63497 l 0.0846,-1.01444 3.83646,-1.60618 3.83646,-1.60618 -3.96294,-0.0736 c -2.17962,-0.0405 -4.04006,-0.15952 -4.13432,-0.26458 -0.0943,-0.10506 -0.2498,-0.8161 -0.34565,-1.58008 l -0.17427,-1.38906 h 8.3781 8.37811 l -0.164,0.99218 c -0.0902,0.54571 -0.16531,1.24051 -0.16691,1.54402 -0.002,0.45721 -0.62666,0.81579 -3.64093,2.09141 -2.00091,0.84677 -3.75113,1.64024 -3.88938,1.76327 -0.13838,0.12316 1.45009,0.2237 3.53442,0.2237 h 3.78576 l -0.14075,0.59531 c -0.0774,0.32742 -0.2902,2.59091 -0.47287,5.02997 l -0.33211,4.43466 -1.87092,0.54077 c -1.02901,0.29742 -2.39815,0.71284 -3.04253,0.92315 -1.63435,0.53341 -2.39109,0.46036 -5.66532,-0.54694 z"
         id="path11"
         transform="translate(-81.886097,-4.1330523)"
         inkscape:export-filename="..\svg\html-vector.svg"
         inkscape:export-xdpi="96"
         inkscape:export-ydpi="96" /></g></g></svg>
