<?xml version="1.0" encoding="UTF-8" standalone="no"?>
<!-- Created with Inkscape (http://www.inkscape.org/) -->

<svg
   width="49.450901mm"
   height="49.474575mm"
   viewBox="0 0 49.450901 49.474575"
   version="1.1"
   id="svg1"
   xml:space="preserve"
   inkscape:version="1.3.2 (091e20e, 2023-11-25, custom)"
   sodipodi:docname="svg-portfolio.svg"
   xmlns:inkscape="http://www.inkscape.org/namespaces/inkscape"
   xmlns:sodipodi="http://sodipodi.sourceforge.net/DTD/sodipodi-0.dtd"
   xmlns="http://www.w3.org/2000/svg"
   xmlns:svg="http://www.w3.org/2000/svg"><sodipodi:namedview
     id="namedview1"
     pagecolor="#505050"
     bordercolor="#ffffff"
     borderopacity="1"
     inkscape:showpageshadow="0"
     inkscape:pageopacity="0"
     inkscape:pagecheckerboard="1"
     inkscape:deskcolor="#505050"
     inkscape:document-units="mm"
     inkscape:zoom="1.4485269"
     inkscape:cx="175.00538"
     inkscape:cy="560.22431"
     inkscape:window-width="1920"
     inkscape:window-height="1009"
     inkscape:window-x="1912"
     inkscape:window-y="-8"
     inkscape:window-maximized="1"
     inkscape:current-layer="layer2" /><defs
     id="defs1" /><g
     inkscape:label="Camada 1"
     inkscape:groupmode="layer"
     id="layer1"
     style="display:inline"
     transform="translate(-56.400865,-108.84211)"><g
       inkscape:groupmode="layer"
       id="layer5"
       inkscape:label="ts"><path
         style="display:inline;fill:#00fdfd"
         d="m 3.3205143,184.39639 c -5.230572,-1.13653 -9.543421,-5.69758 -10.379838,-10.97718 -0.437761,-2.76323 -0.352412,-25.13059 0.104111,-27.28437 0.853175,-4.02509 3.502933,-7.45647 7.12464795,-9.22627 1.27316305,-0.62215 2.85444805,-1.16063 3.87187105,-1.3185 2.278798,-0.35361 24.4849397,-0.34896 26.7229157,0.006 3.718042,0.58903 7.953928,3.52316 9.521136,6.59514 1.740499,3.41166 1.68822,2.92758 1.795178,16.62239 0.06448,8.25551 -0.0013,13.16237 -0.193157,14.41979 -0.837167,5.48538 -5.116788,10.02901 -10.525922,11.17526 -2.506484,0.53114 -25.5868327,0.52139 -28.0409427,-0.0118 z M 29.309013,160.05775 V 148.1515 L 17.336618,148.0827 5.3642223,148.0139 v 11.86485 c 0,6.52567 0.08059,11.94544 0.17908,12.04393 0.09849,0.0985 5.4860717,0.1481 11.9723957,0.11024 l 11.793315,-0.0688 z m -15.742708,3.83646 v -4.7625 h -1.587499 c -1.516945,0 -1.5875,-0.0294 -1.5875,-0.66146 v -0.66146 h 3.836458 3.836458 v 0.66146 c 0,0.63206 -0.07056,0.66146 -1.5875,0.66146 h -1.5875 v 4.7625 4.7625 h -0.661458 -0.661459 z m 6.168449,4.2465 c -0.880763,-0.53704 -1.405949,-1.27672 -1.405949,-1.98015 0,-0.69484 1.046179,-0.46932 1.760393,0.37948 0.576684,0.68535 0.846993,0.79375 1.97932,0.79375 1.039598,0 1.446035,-0.13461 1.960855,-0.64943 1.355324,-1.35533 0.347169,-2.79015 -1.960447,-2.79015 -2.431869,0 -3.740121,-1.09416 -3.740121,-3.12804 0,-0.96441 0.150531,-1.30874 0.899584,-2.0578 0.855293,-0.85529 0.992718,-0.89958 2.791264,-0.89958 2.146815,0 3.194903,0.41392 3.665975,1.44782 0.47285,1.03779 0.391618,1.46281 -0.279219,1.46092 -0.383391,-0.001 -0.755759,-0.28364 -1.046027,-0.79375 -0.422611,-0.74268 -0.550469,-0.79207 -2.050521,-0.79207 -1.782271,0 -2.658139,0.55148 -2.658139,1.67367 0,1.11778 1.028569,1.76591 2.802452,1.76591 1.761504,0 2.530343,0.38791 3.152184,1.59042 0.779585,1.50755 0.245588,3.35464 -1.183476,4.09364 -1.126126,0.58235 -3.646112,0.52072 -4.688128,-0.11464 z"
         id="path33"
         transform="translate(63.747232,-26.485239)" /></g></g></svg>
