<?xml version="1.0" encoding="UTF-8" standalone="no"?>
<!-- Created with Inkscape (http://www.inkscape.org/) -->

<svg
   width="49.450901mm"
   height="49.474567mm"
   viewBox="0 0 49.450901 49.474567"
   version="1.1"
   id="svg1"
   xml:space="preserve"
   inkscape:version="1.3.2 (091e20e, 2023-11-25, custom)"
   sodipodi:docname="svg-portfolio.svg"
   xmlns:inkscape="http://www.inkscape.org/namespaces/inkscape"
   xmlns:sodipodi="http://sodipodi.sourceforge.net/DTD/sodipodi-0.dtd"
   xmlns="http://www.w3.org/2000/svg"
   xmlns:svg="http://www.w3.org/2000/svg"><sodipodi:namedview
     id="namedview1"
     pagecolor="#505050"
     bordercolor="#ffffff"
     borderopacity="1"
     inkscape:showpageshadow="0"
     inkscape:pageopacity="0"
     inkscape:pagecheckerboard="1"
     inkscape:deskcolor="#505050"
     inkscape:document-units="mm"
     inkscape:zoom="1.4485269"
     inkscape:cx="175.00538"
     inkscape:cy="560.22431"
     inkscape:window-width="1920"
     inkscape:window-height="1009"
     inkscape:window-x="1912"
     inkscape:window-y="-8"
     inkscape:window-maximized="1"
     inkscape:current-layer="layer2" /><defs
     id="defs1" /><g
     inkscape:label="Camada 1"
     inkscape:groupmode="layer"
     id="layer1"
     style="display:inline"
     transform="translate(-53.20437,-127.38176)"><g
       inkscape:groupmode="layer"
       id="layer3"
       inkscape:label="css"><g
         id="g15"
         transform="translate(60.094096,1.6439114)"><path
           style="fill:#00fdfd"
           d="m 3.7771549,174.8069 c -5.230571,-1.13653 -9.54342,-5.69758 -10.379837,-10.97718 -0.437761,-2.76323 -0.352413,-25.13059 0.104111,-27.28436 0.853175,-4.02509 3.502932,-7.45648 7.12464799,-9.22628 1.27316201,-0.62215 2.85444801,-1.16063 3.87187001,-1.3185 2.278798,-0.35361 24.4849411,-0.34896 26.7229161,0.006 3.718042,0.58903 7.953929,3.52316 9.521137,6.59514 1.740499,3.41166 1.688219,2.92759 1.795178,16.62239 0.06448,8.25552 -0.0013,13.16237 -0.193158,14.41979 -0.837166,5.48539 -5.116787,10.02901 -10.525921,11.17526 -2.506484,0.53115 -25.5868331,0.52139 -28.0409441,-0.0119 z m 19.6003401,-9.77498 c 3.034949,-0.78901 5.562011,-1.47848 5.615693,-1.53217 0.09965,-0.0996 2.492258,-25.93739 2.492258,-26.9139 0,-0.53316 -0.106927,-0.53738 -13.626041,-0.53738 -8.8274651,0 -13.6260411,0.0924 -13.6260411,0.26227 0,0.56106 2.400037,26.87218 2.473038,27.11141 0.05551,0.18191 9.6579131,2.81692 11.0207121,3.02421 0.07276,0.0111 2.615432,-0.62543 5.650381,-1.41444 z m -8.934112,-5.32194 c -1.733292,-0.6332 -3.236259,-1.24521 -3.339927,-1.36003 -0.103668,-0.11483 -0.265501,-1.36963 -0.35963,-2.78846 l -0.171143,-2.57969 h 1.550016 1.550016 l 0.241262,1.51135 0.241262,1.51135 1.851357,0.70166 1.851357,0.70165 1.91155,-0.6875 c 2.137558,-0.7688 2.105373,-0.71518 2.244242,-3.73851 l 0.07899,-1.71979 -5.850007,-0.0711 -5.850008,-0.0711 -0.309762,-3.23618 c -0.1703691,-1.7799 -0.3791191,-3.7422 -0.4638881,-4.36066 l -0.154126,-1.12448 h 8.3644161 8.364417 v 0.9044 c 0,1.83052 0.339028,1.74143 -6.627276,1.74143 -3.776368,0 -6.369527,0.10267 -6.464246,0.25592 -0.08699,0.14076 -0.07868,0.85514 0.01847,1.5875 l 0.17664,1.33158 h 6.183622 6.183621 l -0.01935,0.59531 c -0.01064,0.32743 -0.219004,2.73312 -0.46302,5.346 l -0.443667,4.75068 -3.439584,0.99729 c -1.89177,0.54851 -3.499114,0.98724 -3.571874,0.97497 -0.07276,-0.0123 -1.55044,-0.54038 -3.283731,-1.17357 z"
           id="path19"
           inkscape:export-filename="..\svg\css-vector.svg"
           inkscape:export-xdpi="96"
           inkscape:export-ydpi="96" /></g></g></g></svg>
