<?xml version="1.0" encoding="UTF-8" standalone="no"?>
<!-- Created with Inkscape (http://www.inkscape.org/) -->

<svg
   width="49.316669mm"
   height="49.245155mm"
   viewBox="0 0 49.316669 49.245155"
   version="1.1"
   id="svg1"
   xml:space="preserve"
   inkscape:version="1.3.2 (091e20e, 2023-11-25, custom)"
   sodipodi:docname="svg-portfolio.svg"
   xmlns:inkscape="http://www.inkscape.org/namespaces/inkscape"
   xmlns:sodipodi="http://sodipodi.sourceforge.net/DTD/sodipodi-0.dtd"
   xmlns="http://www.w3.org/2000/svg"
   xmlns:svg="http://www.w3.org/2000/svg"><sodipodi:namedview
     id="namedview1"
     pagecolor="#505050"
     bordercolor="#ffffff"
     borderopacity="1"
     inkscape:showpageshadow="0"
     inkscape:pageopacity="0"
     inkscape:pagecheckerboard="1"
     inkscape:deskcolor="#505050"
     inkscape:document-units="mm"
     inkscape:zoom="1.4485269"
     inkscape:cx="175.00538"
     inkscape:cy="560.22431"
     inkscape:window-width="1920"
     inkscape:window-height="1009"
     inkscape:window-x="1912"
     inkscape:window-y="-8"
     inkscape:window-maximized="1"
     inkscape:current-layer="layer2" /><defs
     id="defs1" /><g
     inkscape:label="Camada 1"
     inkscape:groupmode="layer"
     id="layer1"
     style="display:inline"
     transform="translate(-50.777211,-123.57879)"><g
       id="g22"
       transform="translate(51.143911,-2.7398524)"><path
         style="fill:#00fdfd"
         d="m 11.379141,175.48645 c -5.072954,-0.72452 -9.37844,-4.3624 -11.04091503,-9.32893 -0.561184,-1.67649 -0.585347,-2.18995 -0.673561,-14.31288 -0.07712,-10.59783 -0.02691,-12.8849 0.31943,-14.55209 1.05752603,-5.0906 4.42377103,-8.86379 9.26739303,-10.38773 1.819672,-0.57252 2.171225,-0.58617 15.092236,-0.58617 12.921011,0 13.272564,0.0136 15.092236,0.58617 4.360738,1.37201 7.549482,4.56402 8.929697,8.93883 0.570214,1.80738 0.584316,2.17136 0.584316,15.08125 0,12.96319 -0.01191,13.26704 -0.592483,15.11301 -1.329082,4.2259 -4.267117,7.23077 -8.689075,8.88672 -1.532558,0.57392 -1.846118,0.58753 -14.530941,0.63088 -7.130521,0.0244 -13.32177,-0.007 -13.758333,-0.0691 z M 36.847827,150.99104 36.779137,138.2249 H 23.946849 11.114558 l -0.06869,12.76614 -0.06869,12.76615 h 12.969671 12.969665 z m -17.266603,10.1622 c -0.436562,-0.26691 -0.966475,-0.69441 -1.177583,-0.95 -0.343051,-0.41533 -0.314939,-0.51765 0.264583,-0.96304 0.822446,-0.63208 0.905657,-0.62917 1.843657,0.0643 0.647074,0.4784 0.885018,0.52517 1.423555,0.2798 0.526409,-0.23985 0.67922,-0.55568 0.821988,-1.6989 0.09645,-0.77235 0.151308,-1.52333 0.121898,-1.66886 -0.02941,-0.14552 -0.03937,-1.60403 -0.02214,-3.24114 l 0.03133,-2.97656 h 1.058333 1.058333 l -0.0015,4.29948 c -0.0017,5.03931 -0.22079,6.10444 -1.403824,6.82579 -1.082016,0.65975 -2.964887,0.67339 -4.018659,0.0291 z m 9.282439,0.0948 c -0.569971,-0.20309 -1.334351,-0.66729 -1.698622,-1.03156 -0.548901,-0.5489 -0.605212,-0.73111 -0.328858,-1.0641 0.598176,-0.72075 1.255679,-0.73085 2.281056,-0.035 0.543878,0.36909 1.143098,0.67107 1.331599,0.67107 0.751017,0 1.664413,-0.5291 1.833593,-1.06214 0.247874,-0.78098 -0.390943,-1.40666 -2.392507,-2.34331 -0.916232,-0.42875 -1.859782,-1.07549 -2.096777,-1.43719 -1.380115,-2.10632 -0.230608,-4.80922 2.106827,-4.95389 1.661969,-0.10286 2.233297,0.0279 3.022408,0.69192 1.013826,0.85308 1.015368,1.04941 0.01232,1.56811 -0.722189,0.37346 -0.842185,0.37413 -1.209523,0.007 -0.526118,-0.52611 -1.540703,-0.5222 -2.070891,0.008 -0.228675,0.22868 -0.415774,0.47463 -0.415774,0.54656 0,0.56422 0.792157,1.25282 2.231447,1.93973 0.933188,0.44537 2.016304,1.18958 2.406924,1.65381 0.611241,0.72642 0.693114,1.02207 0.587475,2.12147 -0.146331,1.5229 -0.84051,2.3745 -2.289411,2.8086 -1.297142,0.38864 -2.026143,0.36908 -3.311287,-0.0888 z"
         id="path25" /></g></g></svg>
