<?xml version="1.0" encoding="UTF-8" standalone="no"?>
<!-- Created with Inkscape (http://www.inkscape.org/) -->

<svg
   width="49.316669mm"
   height="49.245148mm"
   viewBox="0 0 49.316669 49.245148"
   version="1.1"
   id="svg1"
   xml:space="preserve"
   xmlns:inkscape="http://www.inkscape.org/namespaces/inkscape"
   xmlns:sodipodi="http://sodipodi.sourceforge.net/DTD/sodipodi-0.dtd"
   xmlns="http://www.w3.org/2000/svg"
   xmlns:svg="http://www.w3.org/2000/svg"><sodipodi:namedview
     id="namedview1"
     pagecolor="#505050"
     bordercolor="#ffffff"
     borderopacity="1"
     inkscape:showpageshadow="0"
     inkscape:pageopacity="0"
     inkscape:pagecheckerboard="1"
     inkscape:deskcolor="#505050"
     inkscape:document-units="mm" /><defs
     id="defs1" /><g
     inkscape:label="Camada 1"
     inkscape:groupmode="layer"
     id="layer1"
     transform="translate(-63.013914,-99.051778)"><g
       id="g1"
       transform="translate(16.296323,-45.974828)"><path
         style="fill:#00fdfd"
         d="m 58.463431,194.19441 c -5.072954,-0.72451 -9.378439,-4.36239 -11.040915,-9.32892 -0.561183,-1.6765 -0.585346,-2.18996 -0.67356,-14.31289 -0.07712,-10.59783 -0.02691,-12.88489 0.31943,-14.55208 1.057525,-5.0906 4.42377,-8.86379 9.267392,-10.38773 1.819672,-0.57252 2.171225,-0.58618 15.092236,-0.58618 12.92101,0 13.272563,0.0137 15.092236,0.58618 4.360736,1.37201 7.549486,4.56401 8.929696,8.93882 0.57021,1.80739 0.58432,2.17137 0.58432,15.08125 0,12.96319 -0.0119,13.26704 -0.59249,15.11301 -1.32908,4.22591 -4.26711,7.23078 -8.689072,8.88673 -1.532558,0.57391 -1.846118,0.58753 -14.53094,0.63087 -7.13052,0.0244 -13.32177,-0.007 -13.758333,-0.0691 z m 23.624986,-10.99028 0.07707,-2.03915 1.907304,-0.0775 1.907304,-0.0775 v -7.40834 -7.40833 l -1.984375,-0.0755 -1.984375,-0.0755 0.08574,-1.78864 0.08574,-1.78864 -3.431949,-3.22911 -3.431948,-3.22912 h -8.229307 -8.229308 v 14.68716 14.68715 l 11.575521,-0.0689 11.575519,-0.0689 z m -15.555194,-9.60252 v -4.89479 h 8.334375 8.334373 v 4.89479 4.89479 h -8.334373 -8.334375 z m 5.027083,1.98438 c 1.018728,-1.01873 0.528287,-2.1447 -1.190625,-2.73346 -0.582083,-0.19938 -1.058333,-0.52911 -1.058333,-0.73275 0,-0.39185 0.685551,-0.45253 1.622312,-0.1436 0.403506,0.13307 0.613005,0.0582 0.736278,-0.26301 0.236314,-0.61582 -0.127585,-0.90709 -1.334366,-1.06805 -0.789918,-0.10535 -1.190675,-0.005 -1.751828,0.43696 -1.322579,1.04258 -0.819187,2.25808 1.204326,2.908 0.553239,0.17769 0.958626,0.46063 0.900859,0.62876 -0.116587,0.33933 -1.387124,0.37416 -2.102955,0.0576 -0.321919,-0.14234 -0.331632,-0.10996 -0.638302,0.25885 -0.779623,0.93761 2.581252,1.68203 3.612634,0.65065 z m 5.827383,0.0122 c -0.137334,-0.25661 -0.545061,-0.34474 -0.403078,-0.5691 0.797903,-0.90471 0.718653,-2.20246 0.345058,-3.02241 -0.366125,-0.80356 -1.467625,-1.44782 -2.475351,-1.44782 -1.02336,0 -2.500222,1.55752 -2.500222,2.63677 0,2.01242 1.320799,2.5901 3.722138,2.55009 1.335257,1.06994 1.517921,0.23815 1.311495,-0.14753 z m -3.294943,-0.95718 c -0.670664,-0.67067 -0.534499,-2.14007 0.245685,-2.65127 0.612741,-0.40148 0.710176,-0.40148 1.322916,0 0.486908,0.31904 0.661459,0.66649 0.661459,1.31666 0,0.79946 -0.02803,1.27725 -0.410306,0.80246 -0.366486,-0.45517 -1.194999,0.067 -0.732104,0.63042 0.315442,0.38394 0.472719,0.40225 -0.519669,0.249 -0.306123,-0.0473 -0.339305,-0.1186 -0.567981,-0.34727 z m 8.120856,1.31595 c 0.08699,-0.087 0.09409,-0.32512 0.01579,-0.52917 -0.0953,-0.24834 -0.570407,-0.37101 -1.436978,-0.37101 h -1.294609 v -2.26736 c 0,-2.2 -0.01769,-2.26485 -0.595313,-2.18281 -0.559706,0.0795 -0.599924,0.22572 -0.672418,2.44486 -0.04241,1.29817 -0.01638,2.51856 0.05784,2.71197 0.09411,0.24525 0.684601,0.35167 1.951238,0.35167 0.998959,0 1.887461,-0.0712 1.974448,-0.15815 z"
         id="path4"
         sodipodi:nodetypes="cssssscsscsccccccccccccccccccccccccccccccccssssscssssccccssscccssssssssssscsssssss"
         inkscape:export-filename="sql-vetor.svg"
         inkscape:export-xdpi="96"
         inkscape:export-ydpi="96" /></g></g></svg>
